name rise45.9887peak57.8056fall74.9286.mot
datacolumns 19
datarows 15
range 3.39832500000000 3.42165800000000
endheader
time	ground_force1_vx	ground_force1_vy	ground_force1_vz	ground_force1_px	ground_force1_py	ground_force1_pz	ground_force2_vx	ground_force2_vy	ground_force2_vz	ground_force2_px	ground_force2_py	ground_force2_pz	ground_torque1_x	ground_torque1_y	ground_torque1_z	ground_torque2_x	ground_torque2_y	ground_torque2_z	
3.39832500000000	62.26125100000000	772.76648799999998	50.75414800000000	0.33199700000000	0.00000000000000	0.09531700000000	0.00000000000000	0.00000000000000	0.00000000000000	0.00000000000000	0.00000000000000	0.00000000000000	0.00000000000000	21.46858500000000	0.00000000000000	0.00000000000000	0.00000000000000	0.00000000000000	
3.39998500000000	61.73112100000000	775.84093299999995	50.81373700000000	0.33120300000000	0.00000000000000	0.09527400000000	0.00000000000000	0.00000000000000	0.00000000000000	0.00000000000000	0.00000000000000	0.00000000000000	0.00000000000000	21.51195300000000	0.00000000000000	0.00000000000000	0.00000000000000	0.00000000000000	
3.40165900000000	61.20028000000000	778.76626099999999	50.86856000000000	0.33044900000000	0.00000000000000	0.09523000000000	0.00000000000000	0.00000000000000	0.00000000000000	0.00000000000000	0.00000000000000	0.00000000000000	0.00000000000000	21.55461500000000	0.00000000000000	0.00000000000000	0.00000000000000	0.00000000000000	
3.40332100000000	60.66900000000000	781.53936899999997	50.91873100000000	0.32973400000000	0.00000000000000	0.09518600000000	0.00000000000000	0.00000000000000	0.00000000000000	0.00000000000000	0.00000000000000	0.00000000000000	0.00000000000000	21.59662300000000	0.00000000000000	0.00000000000000	0.00000000000000	0.00000000000000	
3.40499100000000	60.13748700000000	784.15734899999995	50.96430700000000	0.32905800000000	0.00000000000000	0.09514200000000	0.00000000000000	0.00000000000000	0.00000000000000	0.00000000000000	0.00000000000000	0.00000000000000	0.00000000000000	21.63798400000000	0.00000000000000	0.00000000000000	0.00000000000000	0.00000000000000	
3.40665500000000	59.60588300000000	786.61751200000003	51.00528200000000	0.32841800000000	0.00000000000000	0.09509700000000	0.00000000000000	0.00000000000000	0.00000000000000	0.00000000000000	0.00000000000000	0.00000000000000	0.00000000000000	21.67866600000000	0.00000000000000	0.00000000000000	0.00000000000000	0.00000000000000	
3.40832100000000	59.07426900000000	788.91740700000003	51.04159800000000	0.32781200000000	0.00000000000000	0.09505200000000	0.00000000000000	0.00000000000000	0.00000000000000	0.00000000000000	0.00000000000000	0.00000000000000	0.00000000000000	21.71859700000000	0.00000000000000	0.00000000000000	0.00000000000000	0.00000000000000	
3.40998700000000	58.54267300000000	791.05483600000002	51.07314200000000	0.32723900000000	0.00000000000000	0.09500700000000	0.00000000000000	0.00000000000000	0.00000000000000	0.00000000000000	0.00000000000000	0.00000000000000	0.00000000000000	21.75767100000000	0.00000000000000	0.00000000000000	0.00000000000000	0.00000000000000	
3.41165900000000	58.01107400000000	793.02787000000001	51.09975500000000	0.32669800000000	0.00000000000000	0.09496100000000	0.00000000000000	0.00000000000000	0.00000000000000	0.00000000000000	0.00000000000000	0.00000000000000	0.00000000000000	21.79574600000000	0.00000000000000	0.00000000000000	0.00000000000000	0.00000000000000	
3.41332200000000	57.47940500000000	794.83486500000004	51.12123500000000	0.32618500000000	0.00000000000000	0.09491600000000	0.00000000000000	0.00000000000000	0.00000000000000	0.00000000000000	0.00000000000000	0.00000000000000	0.00000000000000	21.83265000000000	0.00000000000000	0.00000000000000	0.00000000000000	0.00000000000000	
3.41498600000000	56.94755900000000	796.47447799999998	51.13733900000000	0.32569900000000	0.00000000000000	0.09486900000000	0.00000000000000	0.00000000000000	0.00000000000000	0.00000000000000	0.00000000000000	0.00000000000000	0.00000000000000	21.86817900000000	0.00000000000000	0.00000000000000	0.00000000000000	0.00000000000000	
3.41665800000000	56.41539600000000	797.94567500000005	51.14779000000000	0.32523800000000	0.00000000000000	0.09482300000000	0.00000000000000	0.00000000000000	0.00000000000000	0.00000000000000	0.00000000000000	0.00000000000000	0.00000000000000	21.90210600000000	0.00000000000000	0.00000000000000	0.00000000000000	0.00000000000000	
3.41833600000000	55.88274300000000	799.24774300000001	51.15228100000000	0.32479800000000	0.00000000000000	0.09477600000000	0.00000000000000	0.00000000000000	0.00000000000000	0.00000000000000	0.00000000000000	0.00000000000000	0.00000000000000	21.93418000000000	0.00000000000000	0.00000000000000	0.00000000000000	0.00000000000000	
3.41999100000000	55.34940600000000	800.38030000000003	51.15048200000000	0.32437800000000	0.00000000000000	0.09473000000000	0.00000000000000	0.00000000000000	0.00000000000000	0.00000000000000	0.00000000000000	0.00000000000000	0.00000000000000	21.96412700000000	0.00000000000000	0.00000000000000	0.00000000000000	0.00000000000000	
3.42165800000000	54.81517200000000	801.34330499999999	51.14203900000000	0.32397500000000	0.00000000000000	0.09468300000000	0.00000000000000	0.00000000000000	0.00000000000000	0.00000000000000	0.00000000000000	0.00000000000000	0.00000000000000	21.99165800000000	0.00000000000000	0.00000000000000	0.00000000000000	0.00000000000000	
